<?xml version="1.0" encoding="UTF-8"?>
<svg xmlns="http://www.w3.org/2000/svg" xmlns:xlink="http://www.w3.org/1999/xlink" width="63px" height="32px" viewBox="0 0 62 32" version="1.1">
<defs>
<filter id="alpha" filterUnits="objectBoundingBox" x="0%" y="0%" width="100%" height="100%">
  <feColorMatrix type="matrix" in="SourceGraphic" values="0 0 0 0 1 0 0 0 0 1 0 0 0 0 1 0 0 0 1 0"/>
</filter>
<mask id="mask0">
  <g filter="url(#alpha)">
<rect x="0" y="0" width="62" height="32" style="fill:rgb(0%,0%,0%);fill-opacity:0.403922;stroke:none;"/>
  </g>
</mask>
<clipPath id="clip1">
  <rect x="0" y="0" width="62" height="32"/>
</clipPath>
<g id="surface5" clip-path="url(#clip1)">
<path style=" stroke:none;fill-rule:evenodd;fill:rgb(89.019608%,89.019608%,89.411765%);fill-opacity:1;" d="M 20.429688 -0.046875 C 20.839844 -0.046875 21.25 -0.046875 21.65625 -0.046875 C 21.699219 0.453125 21.449219 0.738281 20.902344 0.808594 C 20.578125 0.777344 20.480469 0.617188 20.621094 0.332031 C 20.511719 0.226562 20.449219 0.0976562 20.429688 -0.046875 Z M 20.429688 -0.046875 "/>
</g>
<mask id="mask1">
  <g filter="url(#alpha)">
<rect x="0" y="0" width="62" height="32" style="fill:rgb(0%,0%,0%);fill-opacity:0.427451;stroke:none;"/>
  </g>
</mask>
<clipPath id="clip2">
  <rect x="0" y="0" width="62" height="32"/>
</clipPath>
<g id="surface8" clip-path="url(#clip2)">
<path style=" stroke:none;fill-rule:evenodd;fill:rgb(87.843137%,88.235294%,88.627451%);fill-opacity:1;" d="M 18.261719 -0.046875 C 18.480469 -0.046875 18.699219 -0.046875 18.921875 -0.046875 C 18.828125 0.152344 18.859375 0.339844 19.015625 0.523438 C 19.128906 0.332031 19.128906 0.140625 19.015625 -0.046875 C 19.425781 -0.046875 19.832031 -0.046875 20.242188 -0.046875 C 20.300781 0.199219 20.300781 0.4375 20.242188 0.667969 C 19.789062 0.820312 19.351562 0.996094 18.921875 1.191406 C 18.777344 1.1875 18.667969 1.125 18.589844 1 C 18.46875 0.652344 18.359375 0.304688 18.261719 -0.046875 Z M 19.582031 0.046875 C 19.765625 0.0898438 19.796875 0.1875 19.675781 0.332031 C 19.59375 0.253906 19.5625 0.160156 19.582031 0.046875 Z M 19.582031 0.046875 "/>
</g>
<mask id="mask2">
  <g filter="url(#alpha)">
<rect x="0" y="0" width="62" height="32" style="fill:rgb(0%,0%,0%);fill-opacity:0.843137;stroke:none;"/>
  </g>
</mask>
<clipPath id="clip3">
  <rect x="0" y="0" width="62" height="32"/>
</clipPath>
<g id="surface11" clip-path="url(#clip3)">
<path style=" stroke:none;fill-rule:evenodd;fill:rgb(91.372549%,91.372549%,91.764706%);fill-opacity:1;" d="M 60.726562 -0.046875 C 61.101562 -0.046875 61.480469 -0.046875 61.859375 -0.046875 C 61.832031 0.164062 61.863281 0.355469 61.953125 0.523438 C 61.953125 0.585938 61.953125 0.652344 61.953125 0.714844 C 61.875 0.804688 61.78125 0.886719 61.667969 0.953125 C 61.097656 1.066406 60.5625 1.257812 60.066406 1.523438 C 58.675781 1.9375 57.320312 2.445312 56.007812 3.046875 C 54.921875 3.273438 53.929688 3.703125 53.035156 4.332031 C 52.917969 4.246094 52.839844 4.136719 52.800781 4 C 52.886719 3.730469 52.902344 3.460938 52.847656 3.191406 C 53.183594 3.003906 53.484375 2.765625 53.742188 2.476562 C 54.058594 2.328125 54.390625 2.214844 54.734375 2.144531 C 54.847656 2.15625 54.960938 2.1875 55.0625 2.238281 C 55.335938 1.789062 55.710938 1.664062 56.195312 1.855469 C 56.378906 1.511719 56.664062 1.324219 57.046875 1.285156 C 57.144531 1.085938 57.285156 0.929688 57.46875 0.808594 C 57.644531 0.910156 57.832031 0.972656 58.035156 1 C 58.367188 0.644531 58.757812 0.550781 59.214844 0.714844 C 59.359375 0.492188 59.546875 0.316406 59.78125 0.191406 C 59.933594 0.121094 60.074219 0.136719 60.207031 0.238281 C 60.203125 0.46875 60.21875 0.691406 60.253906 0.90625 C 60.402344 0.722656 60.589844 0.628906 60.820312 0.617188 C 60.824219 0.390625 60.792969 0.167969 60.726562 -0.046875 Z M 57.988281 1.382812 C 58.175781 1.421875 58.207031 1.519531 58.082031 1.667969 C 57.894531 1.605469 57.863281 1.511719 57.988281 1.382812 Z M 57.988281 1.382812 "/>
</g>
<mask id="mask3">
  <g filter="url(#alpha)">
<rect x="0" y="0" width="62" height="32" style="fill:rgb(0%,0%,0%);fill-opacity:0.847059;stroke:none;"/>
  </g>
</mask>
<clipPath id="clip4">
  <rect x="0" y="0" width="62" height="32"/>
</clipPath>
<g id="surface14" clip-path="url(#clip4)">
<path style=" stroke:none;fill-rule:evenodd;fill:rgb(91.372549%,91.372549%,91.764706%);fill-opacity:1;" d="M 49.023438 3.667969 C 49.390625 3.8125 49.753906 3.96875 50.109375 4.144531 C 50.207031 4.835938 49.925781 5.089844 49.261719 4.90625 C 49.054688 4.5 48.976562 4.089844 49.023438 3.667969 Z M 49.023438 3.667969 "/>
</g>
<mask id="mask4">
  <g filter="url(#alpha)">
<rect x="0" y="0" width="62" height="32" style="fill:rgb(0%,0%,0%);fill-opacity:0.933333;stroke:none;"/>
  </g>
</mask>
<clipPath id="clip5">
  <rect x="0" y="0" width="62" height="32"/>
</clipPath>
<g id="surface17" clip-path="url(#clip5)">
<path style=" stroke:none;fill-rule:evenodd;fill:rgb(90.588235%,90.588235%,90.980392%);fill-opacity:1;" d="M -0.046875 8.046875 C -0.046875 7.601562 -0.046875 7.160156 -0.046875 6.714844 C 0.171875 6.714844 0.394531 6.714844 0.613281 6.714844 C 0.566406 6.480469 0.644531 6.324219 0.847656 6.238281 C 1.027344 6.292969 1.199219 6.355469 1.367188 6.429688 C 1.480469 6.585938 1.480469 6.742188 1.367188 6.90625 C 1.445312 6.988281 1.539062 7.019531 1.652344 7 C 1.5625 6.191406 1.90625 5.855469 2.691406 6 C 2.929688 5.675781 3.117188 5.707031 3.253906 6.09375 C 3.804688 6.210938 3.867188 6.464844 3.445312 6.855469 C 3.09375 6.894531 2.78125 7.019531 2.5 7.238281 C 2.097656 7.21875 1.75 7.34375 1.460938 7.617188 C 1.300781 7.679688 1.140625 7.664062 0.992188 7.570312 C 0.726562 7.910156 0.378906 8.070312 -0.046875 8.046875 Z M -0.046875 8.046875 "/>
</g>
<mask id="mask5">
  <g filter="url(#alpha)">
<rect x="0" y="0" width="62" height="32" style="fill:rgb(0%,0%,0%);fill-opacity:0.384314;stroke:none;"/>
  </g>
</mask>
<clipPath id="clip6">
  <rect x="0" y="0" width="62" height="32"/>
</clipPath>
<g id="surface20" clip-path="url(#clip6)">
<path style=" stroke:none;fill-rule:evenodd;fill:rgb(96.862745%,96.862745%,96.862745%);fill-opacity:1;" d="M 34.964844 9.476562 C 34.960938 9.570312 35.007812 9.632812 35.105469 9.667969 C 35.253906 9.566406 35.394531 9.566406 35.53125 9.667969 C 35.371094 9.734375 35.226562 9.832031 35.105469 9.953125 C 35.109375 10.125 35.09375 10.285156 35.058594 10.429688 C 34.984375 10.386719 34.90625 10.355469 34.820312 10.332031 C 34.632812 10.457031 34.429688 10.550781 34.207031 10.617188 C 34.058594 10.460938 33.996094 10.269531 34.019531 10.046875 C 34.277344 10.058594 34.34375 9.960938 34.207031 9.761719 C 34.34375 9.753906 34.46875 9.785156 34.585938 9.855469 C 34.746094 9.757812 34.875 9.628906 34.964844 9.476562 Z M 34.964844 9.476562 "/>
</g>
<mask id="mask6">
  <g filter="url(#alpha)">
<rect x="0" y="0" width="62" height="32" style="fill:rgb(0%,0%,0%);fill-opacity:0.831373;stroke:none;"/>
  </g>
</mask>
<clipPath id="clip7">
  <rect x="0" y="0" width="62" height="32"/>
</clipPath>
<g id="surface23" clip-path="url(#clip7)">
<path style=" stroke:none;fill-rule:evenodd;fill:rgb(90.196078%,90.980392%,91.372549%);fill-opacity:1;" d="M 35.058594 10.714844 C 34.636719 10.691406 34.226562 10.753906 33.832031 10.90625 C 33.738281 10.859375 33.660156 10.796875 33.59375 10.714844 C 33.546875 10.496094 33.53125 10.273438 33.546875 10.046875 C 33.707031 9.824219 33.925781 9.730469 34.207031 9.761719 C 34.34375 9.960938 34.277344 10.058594 34.019531 10.046875 C 33.996094 10.269531 34.058594 10.460938 34.207031 10.617188 C 34.429688 10.550781 34.632812 10.457031 34.820312 10.332031 C 34.90625 10.355469 34.984375 10.386719 35.058594 10.429688 C 35.09375 10.285156 35.109375 10.125 35.105469 9.953125 C 35.226562 9.832031 35.371094 9.734375 35.53125 9.667969 C 35.394531 9.566406 35.253906 9.566406 35.105469 9.667969 C 35.007812 9.632812 34.960938 9.570312 34.964844 9.476562 C 35.226562 9.242188 35.542969 9.144531 35.90625 9.191406 C 35.75 8.886719 35.816406 8.667969 36.097656 8.523438 C 36.152344 8.542969 36.199219 8.574219 36.238281 8.617188 C 36.460938 9.078125 36.589844 9.554688 36.613281 10.046875 C 36.125 10.335938 35.605469 10.558594 35.058594 10.714844 Z M 35.058594 10.714844 "/>
</g>
<mask id="mask7">
  <g filter="url(#alpha)">
<rect x="0" y="0" width="62" height="32" style="fill:rgb(0%,0%,0%);fill-opacity:0.972549;stroke:none;"/>
  </g>
</mask>
<clipPath id="clip8">
  <rect x="0" y="0" width="62" height="32"/>
</clipPath>
<g id="surface26" clip-path="url(#clip8)">
<path style=" stroke:none;fill-rule:evenodd;fill:rgb(10.588235%,38.431373%,66.666667%);fill-opacity:1;" d="M 31.378906 10.714844 C 31.539062 11.03125 31.730469 11.332031 31.945312 11.617188 C 32.183594 11.699219 32.371094 11.636719 32.511719 11.429688 C 32.460938 11.382812 32.414062 11.332031 32.367188 11.285156 C 32.214844 11.414062 32.074219 11.398438 31.945312 11.238281 C 32.03125 11.210938 32.09375 11.164062 32.132812 11.09375 C 32.226562 10.984375 32.355469 10.921875 32.511719 10.90625 C 32.617188 11.050781 32.710938 11.210938 32.792969 11.382812 C 32.78125 11.65625 32.6875 11.894531 32.511719 12.09375 C 31.792969 12.207031 31.070312 12.273438 30.339844 12.285156 C 29.882812 12.652344 29.585938 12.539062 29.441406 11.953125 C 29.25 11.386719 29.078125 10.847656 28.925781 10.332031 C 29.003906 10.230469 29.101562 10.214844 29.207031 10.285156 C 29.558594 11.09375 30.078125 11.234375 30.765625 10.714844 C 30.746094 10.558594 30.746094 10.402344 30.765625 10.238281 C 30.921875 10.027344 31.109375 9.996094 31.332031 10.144531 C 31.335938 10.355469 31.351562 10.546875 31.378906 10.714844 Z M 31.378906 10.714844 "/>
</g>
<mask id="mask8">
  <g filter="url(#alpha)">
<rect x="0" y="0" width="62" height="32" style="fill:rgb(0%,0%,0%);fill-opacity:0.0745098;stroke:none;"/>
  </g>
</mask>
<clipPath id="clip9">
  <rect x="0" y="0" width="62" height="32"/>
</clipPath>
<g id="surface29" clip-path="url(#clip9)">
<path style=" stroke:none;fill-rule:evenodd;fill:rgb(30.980392%,51.764706%,67.45098%);fill-opacity:1;" d="M 33.265625 10.332031 C 33.289062 10.457031 33.253906 10.550781 33.171875 10.617188 C 33.171875 10.523438 33.171875 10.429688 33.171875 10.332031 C 33.011719 10.3125 32.917969 10.375 32.886719 10.523438 C 32.824219 10.523438 32.792969 10.554688 32.792969 10.617188 C 32.730469 10.585938 32.667969 10.554688 32.605469 10.523438 C 32.597656 10.429688 32.628906 10.351562 32.699219 10.285156 C 32.921875 10.097656 33.109375 10.113281 33.265625 10.332031 Z M 33.265625 10.332031 "/>
</g>
<mask id="mask9">
  <g filter="url(#alpha)">
<rect x="0" y="0" width="62" height="32" style="fill:rgb(0%,0%,0%);fill-opacity:0.137255;stroke:none;"/>
  </g>
</mask>
<clipPath id="clip10">
  <rect x="0" y="0" width="62" height="32"/>
</clipPath>
<g id="surface32" clip-path="url(#clip10)">
<path style=" stroke:none;fill-rule:evenodd;fill:rgb(78.039216%,83.921569%,87.45098%);fill-opacity:1;" d="M 33.546875 10.046875 C 33.53125 10.273438 33.546875 10.496094 33.59375 10.714844 C 33.660156 10.796875 33.738281 10.859375 33.832031 10.90625 C 34.226562 10.753906 34.636719 10.691406 35.058594 10.714844 C 34.699219 10.769531 34.351562 10.898438 34.019531 11.09375 C 33.902344 11.023438 33.777344 10.992188 33.640625 11 C 33.484375 10.8125 33.421875 10.589844 33.453125 10.332031 C 33.429688 10.210938 33.460938 10.113281 33.546875 10.046875 Z M 33.546875 10.046875 "/>
</g>
<mask id="mask10">
  <g filter="url(#alpha)">
<rect x="0" y="0" width="62" height="32" style="fill:rgb(0%,0%,0%);fill-opacity:0.243137;stroke:none;"/>
  </g>
</mask>
<clipPath id="clip11">
  <rect x="0" y="0" width="62" height="32"/>
</clipPath>
<g id="surface35" clip-path="url(#clip11)">
<path style=" stroke:none;fill-rule:evenodd;fill:rgb(58.823529%,71.764706%,80.784314%);fill-opacity:1;" d="M 33.265625 10.332031 C 33.328125 10.332031 33.390625 10.332031 33.453125 10.332031 C 33.421875 10.589844 33.484375 10.8125 33.640625 11 C 33.507812 11.195312 33.320312 11.289062 33.074219 11.285156 C 33.074219 11.191406 33.074219 11.09375 33.074219 11 C 33.355469 10.949219 33.386719 10.886719 33.171875 10.808594 C 33.171875 10.746094 33.171875 10.683594 33.171875 10.617188 C 33.253906 10.550781 33.289062 10.457031 33.265625 10.332031 Z M 33.265625 10.332031 "/>
</g>
<mask id="mask11">
  <g filter="url(#alpha)">
<rect x="0" y="0" width="62" height="32" style="fill:rgb(0%,0%,0%);fill-opacity:0.988235;stroke:none;"/>
  </g>
</mask>
<clipPath id="clip12">
  <rect x="0" y="0" width="62" height="32"/>
</clipPath>
<g id="surface38" clip-path="url(#clip12)">
<path style=" stroke:none;fill-rule:evenodd;fill:rgb(20%,42.745098%,65.098039%);fill-opacity:1;" d="M 33.171875 10.617188 C 33.171875 10.683594 33.171875 10.746094 33.171875 10.808594 C 33.019531 10.859375 32.988281 10.921875 33.074219 11 C 33.074219 11.09375 33.074219 11.191406 33.074219 11.285156 C 32.972656 11.292969 32.878906 11.324219 32.792969 11.382812 C 32.710938 11.210938 32.617188 11.050781 32.511719 10.90625 C 32.484375 10.753906 32.515625 10.625 32.605469 10.523438 C 32.667969 10.554688 32.730469 10.585938 32.792969 10.617188 C 32.855469 10.617188 32.886719 10.585938 32.886719 10.523438 C 32.917969 10.375 33.011719 10.3125 33.171875 10.332031 C 33.171875 10.429688 33.171875 10.523438 33.171875 10.617188 Z M 33.171875 10.617188 "/>
</g>
<mask id="mask12">
  <g filter="url(#alpha)">
<rect x="0" y="0" width="62" height="32" style="fill:rgb(0%,0%,0%);fill-opacity:0.388235;stroke:none;"/>
  </g>
</mask>
<clipPath id="clip13">
  <rect x="0" y="0" width="62" height="32"/>
</clipPath>
<g id="surface41" clip-path="url(#clip13)">
<path style=" stroke:none;fill-rule:evenodd;fill:rgb(16.862745%,41.176471%,65.098039%);fill-opacity:1;" d="M 32.132812 11.09375 C 32.09375 11.164062 32.03125 11.210938 31.945312 11.238281 C 32.074219 11.398438 32.214844 11.414062 32.367188 11.285156 C 32.414062 11.332031 32.460938 11.382812 32.511719 11.429688 C 32.371094 11.636719 32.183594 11.699219 31.945312 11.617188 C 31.730469 11.332031 31.539062 11.03125 31.378906 10.714844 C 31.453125 10.5625 31.5625 10.4375 31.707031 10.332031 C 31.753906 10.421875 31.769531 10.519531 31.753906 10.617188 C 31.914062 10.574219 32.058594 10.574219 32.179688 10.617188 C 32.195312 10.652344 32.210938 10.683594 32.226562 10.714844 C 32.117188 10.816406 31.992188 10.898438 31.847656 10.953125 C 31.917969 11.050781 32.015625 11.097656 32.132812 11.09375 Z M 32.132812 11.09375 "/>
</g>
<mask id="mask13">
  <g filter="url(#alpha)">
<rect x="0" y="0" width="62" height="32" style="fill:rgb(0%,0%,0%);fill-opacity:0.996078;stroke:none;"/>
  </g>
</mask>
<clipPath id="clip14">
  <rect x="0" y="0" width="62" height="32"/>
</clipPath>
<g id="surface44" clip-path="url(#clip14)">
<path style=" stroke:none;fill-rule:evenodd;fill:rgb(10.196078%,38.431373%,67.058824%);fill-opacity:1;" d="M 28.640625 11.855469 C 28.757812 11.769531 28.882812 11.753906 29.019531 11.808594 C 29.179688 12.042969 29.304688 12.296875 29.394531 12.570312 C 30.464844 12.757812 31.535156 12.757812 32.605469 12.570312 C 33.035156 12.324219 33.414062 12.007812 33.738281 11.617188 C 34.996094 10.972656 36.019531 11.246094 36.804688 12.429688 C 37.054688 13.078125 37.117188 13.746094 36.992188 14.429688 C 37.71875 15.078125 37.800781 15.808594 37.226562 16.617188 C 34.214844 17.972656 31.101562 18.304688 27.886719 17.617188 C 26.78125 17.386719 25.726562 17.019531 24.722656 16.523438 C 24.316406 15.695312 24.441406 14.964844 25.101562 14.332031 C 25.167969 14.242188 25.152344 14.179688 25.054688 14.144531 C 25.054688 13.953125 25.054688 13.761719 25.054688 13.570312 C 25.144531 11.878906 26.023438 11.132812 27.695312 11.332031 C 28.050781 11.453125 28.363281 11.628906 28.640625 11.855469 Z M 27.695312 12.429688 C 27.726562 12.609375 27.789062 12.769531 27.886719 12.90625 C 27.824219 13.726562 27.382812 14.109375 26.566406 14.046875 C 26.417969 13.675781 26.277344 13.296875 26.140625 12.90625 C 26.078125 12.832031 26 12.800781 25.902344 12.808594 C 26.351562 11.976562 26.949219 11.847656 27.695312 12.429688 Z M 34.867188 12.046875 C 35.800781 12.082031 36.191406 12.558594 36.046875 13.476562 C 35.695312 14.050781 35.207031 14.195312 34.585938 13.90625 C 34.105469 13.46875 34.027344 12.976562 34.351562 12.429688 C 34.519531 12.289062 34.695312 12.160156 34.867188 12.046875 Z M 29.488281 15.285156 C 29.960938 15.265625 30.117188 15.472656 29.960938 15.90625 C 29.417969 16.015625 29.261719 15.8125 29.488281 15.285156 Z M 32.132812 15.285156 C 32.554688 15.3125 32.679688 15.519531 32.511719 15.90625 C 31.929688 15.988281 31.800781 15.78125 32.132812 15.285156 Z M 32.132812 15.285156 "/>
</g>
<mask id="mask14">
  <g filter="url(#alpha)">
<rect x="0" y="0" width="62" height="32" style="fill:rgb(0%,0%,0%);fill-opacity:0.968627;stroke:none;"/>
  </g>
</mask>
<clipPath id="clip15">
  <rect x="0" y="0" width="62" height="32"/>
</clipPath>
<g id="surface47" clip-path="url(#clip15)">
<path style=" stroke:none;fill-rule:evenodd;fill:rgb(9.803922%,38.431373%,67.058824%);fill-opacity:1;" d="M 35.058594 12.523438 C 35.511719 12.632812 35.609375 12.871094 35.339844 13.238281 C 34.851562 13.382812 34.679688 13.207031 34.820312 12.714844 C 34.914062 12.660156 34.996094 12.597656 35.058594 12.523438 Z M 35.058594 12.523438 "/>
</g>
<mask id="mask15">
  <g filter="url(#alpha)">
<rect x="0" y="0" width="62" height="32" style="fill:rgb(0%,0%,0%);fill-opacity:0.0588235;stroke:none;"/>
  </g>
</mask>
<clipPath id="clip16">
  <rect x="0" y="0" width="62" height="32"/>
</clipPath>
<g id="surface50" clip-path="url(#clip16)">
<path style=" stroke:none;fill-rule:evenodd;fill:rgb(11.764706%,38.431373%,63.529412%);fill-opacity:1;" d="M 27.035156 12.332031 C 27.539062 12.554688 27.664062 12.902344 27.414062 13.382812 C 26.789062 13.582031 26.492188 13.359375 26.515625 12.714844 C 26.660156 12.527344 26.832031 12.398438 27.035156 12.332031 Z M 27.035156 12.332031 "/>
</g>
<mask id="mask16">
  <g filter="url(#alpha)">
<rect x="0" y="0" width="62" height="32" style="fill:rgb(0%,0%,0%);fill-opacity:0.992157;stroke:none;"/>
  </g>
</mask>
<clipPath id="clip17">
  <rect x="0" y="0" width="62" height="32"/>
</clipPath>
<g id="surface53" clip-path="url(#clip17)">
<path style=" stroke:none;fill-rule:evenodd;fill:rgb(15.686275%,40.392157%,64.705882%);fill-opacity:1;" d="M 25.902344 12.808594 C 26 12.800781 26.078125 12.832031 26.140625 12.90625 C 26.277344 13.296875 26.417969 13.675781 26.566406 14.046875 C 26.285156 14.25 25.972656 14.347656 25.621094 14.332031 C 25.605469 14.234375 25.621094 14.136719 25.667969 14.046875 C 25.820312 14.109375 25.960938 14.0625 26.09375 13.90625 C 25.484375 13.957031 25.246094 13.6875 25.386719 13.09375 C 25.535156 12.957031 25.707031 12.859375 25.902344 12.808594 Z M 25.902344 12.808594 "/>
</g>
<mask id="mask17">
  <g filter="url(#alpha)">
<rect x="0" y="0" width="62" height="32" style="fill:rgb(0%,0%,0%);fill-opacity:0.941176;stroke:none;"/>
  </g>
</mask>
<clipPath id="clip18">
  <rect x="0" y="0" width="62" height="32"/>
</clipPath>
<g id="surface56" clip-path="url(#clip18)">
<path style=" stroke:none;fill-rule:evenodd;fill:rgb(91.372549%,91.372549%,91.764706%);fill-opacity:1;" d="M 23.640625 13.382812 C 23.582031 13.402344 23.550781 13.449219 23.542969 13.523438 C 23.613281 13.933594 23.773438 14.300781 24.015625 14.617188 C 23.949219 14.707031 23.855469 14.738281 23.734375 14.714844 C 23.640625 14.722656 23.5625 14.691406 23.496094 14.617188 C 23.320312 14.269531 23.175781 13.902344 23.074219 13.523438 C 23.195312 13.160156 23.386719 13.109375 23.640625 13.382812 Z M 23.640625 13.382812 "/>
</g>
<mask id="mask18">
  <g filter="url(#alpha)">
<rect x="0" y="0" width="62" height="32" style="fill:rgb(0%,0%,0%);fill-opacity:0.921569;stroke:none;"/>
  </g>
</mask>
<clipPath id="clip19">
  <rect x="0" y="0" width="62" height="32"/>
</clipPath>
<g id="surface59" clip-path="url(#clip19)">
<path style=" stroke:none;fill-rule:evenodd;fill:rgb(98.039216%,98.431373%,98.823529%);fill-opacity:1;" d="M 23.640625 13.382812 C 23.800781 13.394531 23.957031 13.425781 24.109375 13.476562 C 24.066406 13.839844 24.160156 14.160156 24.394531 14.429688 C 24.304688 14.554688 24.175781 14.617188 24.015625 14.617188 C 23.773438 14.300781 23.613281 13.933594 23.542969 13.523438 C 23.550781 13.449219 23.582031 13.402344 23.640625 13.382812 Z M 23.640625 13.382812 "/>
</g>
<mask id="mask19">
  <g filter="url(#alpha)">
<rect x="0" y="0" width="62" height="32" style="fill:rgb(0%,0%,0%);fill-opacity:0.823529;stroke:none;"/>
  </g>
</mask>
<clipPath id="clip20">
  <rect x="0" y="0" width="62" height="32"/>
</clipPath>
<g id="surface62" clip-path="url(#clip20)">
<path style=" stroke:none;fill-rule:evenodd;fill:rgb(89.411765%,89.803922%,90.980392%);fill-opacity:1;" d="M 24.300781 13.382812 C 24.339844 13.449219 24.402344 13.496094 24.488281 13.523438 C 24.445312 13.835938 24.414062 14.136719 24.394531 14.429688 C 24.160156 14.160156 24.066406 13.839844 24.109375 13.476562 C 24.144531 13.394531 24.207031 13.363281 24.300781 13.382812 Z M 24.300781 13.382812 "/>
</g>
<mask id="mask20">
  <g filter="url(#alpha)">
<rect x="0" y="0" width="62" height="32" style="fill:rgb(0%,0%,0%);fill-opacity:0.101961;stroke:none;"/>
  </g>
</mask>
<clipPath id="clip21">
  <rect x="0" y="0" width="62" height="32"/>
</clipPath>
<g id="surface65" clip-path="url(#clip21)">
<path style=" stroke:none;fill-rule:evenodd;fill:rgb(53.333333%,67.45098%,78.431373%);fill-opacity:1;" d="M 24.675781 13.285156 C 24.773438 13.316406 24.835938 13.382812 24.867188 13.476562 C 24.867188 13.761719 24.867188 14.046875 24.867188 14.332031 C 24.832031 14.414062 24.769531 14.445312 24.675781 14.429688 C 24.675781 14.300781 24.675781 14.175781 24.675781 14.046875 C 24.804688 13.953125 24.804688 13.855469 24.675781 13.761719 C 24.675781 13.601562 24.675781 13.445312 24.675781 13.285156 Z M 24.675781 13.285156 "/>
</g>
<mask id="mask21">
  <g filter="url(#alpha)">
<rect x="0" y="0" width="62" height="32" style="fill:rgb(0%,0%,0%);fill-opacity:0.188235;stroke:none;"/>
  </g>
</mask>
<clipPath id="clip22">
  <rect x="0" y="0" width="62" height="32"/>
</clipPath>
<g id="surface68" clip-path="url(#clip22)">
<path style=" stroke:none;fill-rule:evenodd;fill:rgb(82.352941%,87.843137%,92.156863%);fill-opacity:1;" d="M 24.675781 13.285156 C 24.675781 13.445312 24.675781 13.601562 24.675781 13.761719 C 24.570312 13.84375 24.570312 13.9375 24.675781 14.046875 C 24.675781 14.175781 24.675781 14.300781 24.675781 14.429688 C 24.535156 14.554688 24.378906 14.667969 24.207031 14.761719 C 24.027344 14.835938 23.871094 14.820312 23.734375 14.714844 C 23.855469 14.738281 23.949219 14.707031 24.015625 14.617188 C 24.175781 14.617188 24.304688 14.554688 24.394531 14.429688 C 24.414062 14.136719 24.445312 13.835938 24.488281 13.523438 C 24.402344 13.496094 24.339844 13.449219 24.300781 13.382812 C 24.402344 13.292969 24.527344 13.261719 24.675781 13.285156 Z M 24.675781 13.285156 "/>
</g>
<mask id="mask22">
  <g filter="url(#alpha)">
<rect x="0" y="0" width="62" height="32" style="fill:rgb(0%,0%,0%);fill-opacity:0.145098;stroke:none;"/>
  </g>
</mask>
<clipPath id="clip23">
  <rect x="0" y="0" width="62" height="32"/>
</clipPath>
<g id="surface71" clip-path="url(#clip23)">
<path style=" stroke:none;fill-rule:evenodd;fill:rgb(35.294118%,55.294118%,70.588235%);fill-opacity:1;" d="M 24.867188 13.476562 C 24.929688 13.507812 24.992188 13.539062 25.054688 13.570312 C 25.054688 13.761719 25.054688 13.953125 25.054688 14.144531 C 25.023438 14.238281 24.960938 14.300781 24.867188 14.332031 C 24.867188 14.046875 24.867188 13.761719 24.867188 13.476562 Z M 24.867188 13.476562 "/>
</g>
<mask id="mask23">
  <g filter="url(#alpha)">
<rect x="0" y="0" width="62" height="32" style="fill:rgb(0%,0%,0%);fill-opacity:0.772549;stroke:none;"/>
  </g>
</mask>
<clipPath id="clip24">
  <rect x="0" y="0" width="62" height="32"/>
</clipPath>
<g id="surface74" clip-path="url(#clip24)">
<path style=" stroke:none;fill-rule:evenodd;fill:rgb(91.372549%,91.372549%,91.764706%);fill-opacity:1;" d="M 61.953125 15 C 61.953125 15.445312 61.953125 15.890625 61.953125 16.332031 C 61.761719 16.316406 61.574219 16.332031 61.386719 16.382812 C 60.546875 16.707031 59.695312 17.042969 58.839844 17.382812 C 58.597656 17.28125 58.410156 17.363281 58.273438 17.617188 C 57.996094 17.714844 57.714844 17.777344 57.421875 17.808594 C 57.082031 18.648438 56.625 18.726562 56.054688 18.046875 C 55.742188 18.347656 55.378906 18.394531 54.96875 18.191406 C 54.59375 17.9375 54.59375 17.683594 54.96875 17.429688 C 55.289062 17.394531 55.601562 17.394531 55.914062 17.429688 C 56.046875 17.136719 56.265625 16.945312 56.574219 16.855469 C 58.363281 16.175781 60.15625 15.554688 61.953125 15 Z M 61.953125 15 "/>
</g>
<mask id="mask24">
  <g filter="url(#alpha)">
<rect x="0" y="0" width="62" height="32" style="fill:rgb(0%,0%,0%);fill-opacity:0.701961;stroke:none;"/>
  </g>
</mask>
<clipPath id="clip25">
  <rect x="0" y="0" width="62" height="32"/>
</clipPath>
<g id="surface77" clip-path="url(#clip25)">
<path style=" stroke:none;fill-rule:evenodd;fill:rgb(92.156863%,92.156863%,92.54902%);fill-opacity:1;" d="M 53.929688 17.285156 C 54.292969 17.265625 54.515625 17.441406 54.59375 17.808594 C 54.578125 17.882812 54.546875 17.945312 54.496094 18 C 54.28125 18.179688 54.09375 18.164062 53.929688 17.953125 C 53.808594 17.726562 53.808594 17.503906 53.929688 17.285156 Z M 53.929688 17.285156 "/>
</g>
<mask id="mask25">
  <g filter="url(#alpha)">
<rect x="0" y="0" width="62" height="32" style="fill:rgb(0%,0%,0%);fill-opacity:0.996078;stroke:none;"/>
  </g>
</mask>
<clipPath id="clip26">
  <rect x="0" y="0" width="62" height="32"/>
</clipPath>
<g id="surface80" clip-path="url(#clip26)">
<path style=" stroke:none;fill-rule:evenodd;fill:rgb(9.803922%,38.039216%,67.058824%);fill-opacity:1;" d="M 25.339844 17.191406 C 27.992188 18.257812 30.730469 18.558594 33.546875 18.09375 C 34.640625 17.863281 35.710938 17.578125 36.757812 17.238281 C 33.734375 20.257812 30.398438 20.667969 26.753906 18.476562 C 26.199219 18.125 25.726562 17.695312 25.339844 17.191406 Z M 25.339844 17.191406 "/>
</g>
<mask id="mask26">
  <g filter="url(#alpha)">
<rect x="0" y="0" width="62" height="32" style="fill:rgb(0%,0%,0%);fill-opacity:0.254902;stroke:none;"/>
  </g>
</mask>
<clipPath id="clip27">
  <rect x="0" y="0" width="62" height="32"/>
</clipPath>
<g id="surface83" clip-path="url(#clip27)">
<path style=" stroke:none;fill-rule:evenodd;fill:rgb(90.980392%,90.980392%,91.372549%);fill-opacity:1;" d="M 10.144531 17.953125 C 10.289062 17.953125 10.398438 18.015625 10.476562 18.144531 C 10.644531 18.746094 10.644531 19.347656 10.476562 19.953125 C 10.234375 20.039062 10 20.007812 9.765625 19.855469 C 9.578125 19.550781 9.359375 19.28125 9.105469 19.046875 C 9.121094 18.972656 9.152344 18.910156 9.199219 18.855469 C 9.433594 18.765625 9.671875 18.6875 9.910156 18.617188 C 9.921875 18.367188 10 18.144531 10.144531 17.953125 Z M 10.144531 17.953125 "/>
</g>
<mask id="mask27">
  <g filter="url(#alpha)">
<rect x="0" y="0" width="62" height="32" style="fill:rgb(0%,0%,0%);fill-opacity:0.596078;stroke:none;"/>
  </g>
</mask>
<clipPath id="clip28">
  <rect x="0" y="0" width="62" height="32"/>
</clipPath>
<g id="surface86" clip-path="url(#clip28)">
<path style=" stroke:none;fill-rule:evenodd;fill:rgb(92.156863%,92.941176%,92.941176%);fill-opacity:1;" d="M 6.839844 19.570312 C 6.96875 19.570312 7.09375 19.570312 7.21875 19.570312 C 7.097656 20.105469 6.890625 20.613281 6.605469 21.09375 C 6.40625 21.324219 6.21875 21.324219 6.039062 21.09375 C 6.003906 20.855469 5.925781 20.636719 5.804688 20.429688 C 5.871094 20.039062 6.074219 19.914062 6.417969 20.046875 C 6.578125 19.902344 6.71875 19.742188 6.839844 19.570312 Z M 6.839844 19.570312 "/>
</g>
<mask id="mask28">
  <g filter="url(#alpha)">
<rect x="0" y="0" width="62" height="32" style="fill:rgb(0%,0%,0%);fill-opacity:0.0431373;stroke:none;"/>
  </g>
</mask>
<clipPath id="clip29">
  <rect x="0" y="0" width="62" height="32"/>
</clipPath>
<g id="surface89" clip-path="url(#clip29)">
<path style=" stroke:none;fill-rule:evenodd;fill:rgb(5.882353%,23.137255%,33.333333%);fill-opacity:1;" d="M 33.640625 21 C 33.679688 20.902344 33.742188 20.886719 33.832031 20.953125 C 33.773438 20.996094 33.710938 21.011719 33.640625 21 Z M 33.640625 21 "/>
</g>
<mask id="mask29">
  <g filter="url(#alpha)">
<rect x="0" y="0" width="62" height="32" style="fill:rgb(0%,0%,0%);fill-opacity:0.00392157;stroke:none;"/>
  </g>
</mask>
<clipPath id="clip30">
  <rect x="0" y="0" width="62" height="32"/>
</clipPath>
<g id="surface92" clip-path="url(#clip30)">
<path style=" stroke:none;fill-rule:evenodd;fill:rgb(5.098039%,21.176471%,30.588235%);fill-opacity:1;" d="M 34.113281 20.90625 C 34.238281 20.96875 34.238281 20.96875 34.113281 20.90625 Z M 34.113281 20.90625 "/>
</g>
<mask id="mask30">
  <g filter="url(#alpha)">
<rect x="0" y="0" width="62" height="32" style="fill:rgb(0%,0%,0%);fill-opacity:0.00392157;stroke:none;"/>
  </g>
</mask>
<clipPath id="clip31">
  <rect x="0" y="0" width="62" height="32"/>
</clipPath>
<g id="surface95" clip-path="url(#clip31)">
<path style=" stroke:none;fill-rule:evenodd;fill:rgb(10.980392%,26.27451%,35.686275%);fill-opacity:1;" d="M 33.640625 21.191406 C 33.578125 21.0625 33.578125 21.0625 33.640625 21.191406 Z M 33.640625 21.191406 "/>
</g>
<mask id="mask31">
  <g filter="url(#alpha)">
<rect x="0" y="0" width="62" height="32" style="fill:rgb(0%,0%,0%);fill-opacity:0.0980392;stroke:none;"/>
  </g>
</mask>
<clipPath id="clip32">
  <rect x="0" y="0" width="62" height="32"/>
</clipPath>
<g id="surface98" clip-path="url(#clip32)">
<path style=" stroke:none;fill-rule:evenodd;fill:rgb(12.156863%,25.882353%,34.509804%);fill-opacity:1;" d="M 33.640625 21.191406 C 33.769531 21.253906 33.769531 21.253906 33.640625 21.191406 Z M 33.640625 21.191406 "/>
</g>
<mask id="mask32">
  <g filter="url(#alpha)">
<rect x="0" y="0" width="62" height="32" style="fill:rgb(0%,0%,0%);fill-opacity:0.00392157;stroke:none;"/>
  </g>
</mask>
<clipPath id="clip33">
  <rect x="0" y="0" width="62" height="32"/>
</clipPath>
<g id="surface101" clip-path="url(#clip33)">
<path style=" stroke:none;fill-rule:evenodd;fill:rgb(15.686275%,27.843137%,35.294118%);fill-opacity:1;" d="M 33.640625 21.382812 C 33.769531 21.445312 33.769531 21.445312 33.640625 21.382812 Z M 33.640625 21.382812 "/>
</g>
<mask id="mask33">
  <g filter="url(#alpha)">
<rect x="0" y="0" width="62" height="32" style="fill:rgb(0%,0%,0%);fill-opacity:0.576471;stroke:none;"/>
  </g>
</mask>
<clipPath id="clip34">
  <rect x="0" y="0" width="62" height="32"/>
</clipPath>
<g id="surface104" clip-path="url(#clip34)">
<path style=" stroke:none;fill-rule:evenodd;fill:rgb(90.980392%,90.980392%,91.372549%);fill-opacity:1;" d="M -0.046875 23.953125 C -0.046875 23.636719 -0.046875 23.316406 -0.046875 23 C 0.078125 22.96875 0.078125 22.9375 -0.046875 22.90625 C -0.046875 22.652344 -0.046875 22.398438 -0.046875 22.144531 C 0.078125 22.171875 0.203125 22.207031 0.332031 22.238281 C 0.527344 22.148438 0.71875 22.039062 0.898438 21.90625 C 1.371094 21.957031 1.746094 21.800781 2.027344 21.429688 C 2.296875 21.289062 2.5625 21.144531 2.832031 21 C 3.589844 21.40625 3.636719 21.898438 2.972656 22.476562 C 2.699219 22.503906 2.449219 22.582031 2.21875 22.714844 C 2.128906 22.703125 2.050781 22.671875 1.980469 22.617188 C 1.65625 23.039062 1.234375 23.199219 0.707031 23.09375 C 0.722656 23.621094 0.472656 23.90625 -0.046875 23.953125 Z M -0.046875 23.953125 "/>
</g>
<mask id="mask34">
  <g filter="url(#alpha)">
<rect x="0" y="0" width="62" height="32" style="fill:rgb(0%,0%,0%);fill-opacity:0.0980392;stroke:none;"/>
  </g>
</mask>
<clipPath id="clip35">
  <rect x="0" y="0" width="62" height="32"/>
</clipPath>
<g id="surface107" clip-path="url(#clip35)">
<path style=" stroke:none;fill-rule:evenodd;fill:rgb(14.901961%,26.27451%,33.333333%);fill-opacity:1;" d="M 33.359375 21.476562 C 33.59375 21.476562 33.609375 21.539062 33.40625 21.667969 C 33.363281 21.609375 33.347656 21.546875 33.359375 21.476562 Z M 33.359375 21.476562 "/>
</g>
<mask id="mask35">
  <g filter="url(#alpha)">
<rect x="0" y="0" width="62" height="32" style="fill:rgb(0%,0%,0%);fill-opacity:0.0196078;stroke:none;"/>
  </g>
</mask>
<clipPath id="clip36">
  <rect x="0" y="0" width="62" height="32"/>
</clipPath>
<g id="surface110" clip-path="url(#clip36)">
<path style=" stroke:none;fill-rule:evenodd;fill:rgb(45.882353%,50.196078%,49.019608%);fill-opacity:1;" d="M 36.660156 22.808594 C 36.761719 22.882812 36.777344 22.976562 36.710938 23.09375 C 36.664062 23.003906 36.648438 22.910156 36.660156 22.808594 Z M 36.660156 22.808594 "/>
</g>
<mask id="mask36">
  <g filter="url(#alpha)">
<rect x="0" y="0" width="62" height="32" style="fill:rgb(0%,0%,0%);fill-opacity:0.14902;stroke:none;"/>
  </g>
</mask>
<clipPath id="clip37">
  <rect x="0" y="0" width="62" height="32"/>
</clipPath>
<g id="surface113" clip-path="url(#clip37)">
<path style=" stroke:none;fill-rule:evenodd;fill:rgb(49.019608%,52.54902%,51.764706%);fill-opacity:1;" d="M 36.757812 23.191406 C 36.992188 23.191406 37.007812 23.253906 36.804688 23.382812 C 36.761719 23.324219 36.742188 23.261719 36.757812 23.191406 Z M 36.757812 23.191406 "/>
</g>
<mask id="mask37">
  <g filter="url(#alpha)">
<rect x="0" y="0" width="62" height="32" style="fill:rgb(0%,0%,0%);fill-opacity:0.176471;stroke:none;"/>
  </g>
</mask>
<clipPath id="clip38">
  <rect x="0" y="0" width="62" height="32"/>
</clipPath>
<g id="surface116" clip-path="url(#clip38)">
<path style=" stroke:none;fill-rule:evenodd;fill:rgb(53.72549%,55.294118%,54.509804%);fill-opacity:1;" d="M 36.378906 23.476562 C 36.566406 23.566406 36.597656 23.691406 36.472656 23.855469 C 36.269531 23.769531 36.238281 23.640625 36.378906 23.476562 Z M 36.378906 23.476562 "/>
</g>
<mask id="mask38">
  <g filter="url(#alpha)">
<rect x="0" y="0" width="62" height="32" style="fill:rgb(0%,0%,0%);fill-opacity:0.164706;stroke:none;"/>
  </g>
</mask>
<clipPath id="clip39">
  <rect x="0" y="0" width="62" height="32"/>
</clipPath>
<g id="surface119" clip-path="url(#clip39)">
<path style=" stroke:none;fill-rule:evenodd;fill:rgb(52.156863%,54.117647%,52.941176%);fill-opacity:1;" d="M 36.285156 23.953125 C 36.519531 23.953125 36.535156 24.015625 36.332031 24.144531 C 36.289062 24.085938 36.273438 24.023438 36.285156 23.953125 Z M 36.285156 23.953125 "/>
</g>
<mask id="mask39">
  <g filter="url(#alpha)">
<rect x="0" y="0" width="62" height="32" style="fill:rgb(0%,0%,0%);fill-opacity:0.0745098;stroke:none;"/>
  </g>
</mask>
<clipPath id="clip40">
  <rect x="0" y="0" width="62" height="32"/>
</clipPath>
<g id="surface122" clip-path="url(#clip40)">
<path style=" stroke:none;fill-rule:evenodd;fill:rgb(51.372549%,53.333333%,51.372549%);fill-opacity:1;" d="M 36.472656 24.429688 C 36.546875 24.457031 36.609375 24.503906 36.660156 24.570312 C 36.539062 24.621094 36.476562 24.574219 36.472656 24.429688 Z M 36.472656 24.429688 "/>
</g>
<mask id="mask40">
  <g filter="url(#alpha)">
<rect x="0" y="0" width="62" height="32" style="fill:rgb(0%,0%,0%);fill-opacity:0.141176;stroke:none;"/>
  </g>
</mask>
<clipPath id="clip41">
  <rect x="0" y="0" width="62" height="32"/>
</clipPath>
<g id="surface125" clip-path="url(#clip41)">
<path style=" stroke:none;fill-rule:evenodd;fill:rgb(46.666667%,49.803922%,49.803922%);fill-opacity:1;" d="M 35.90625 24.714844 C 36.144531 24.714844 36.160156 24.777344 35.953125 24.90625 C 35.910156 24.847656 35.894531 24.785156 35.90625 24.714844 Z M 35.90625 24.714844 "/>
</g>
<mask id="mask41">
  <g filter="url(#alpha)">
<rect x="0" y="0" width="62" height="32" style="fill:rgb(0%,0%,0%);fill-opacity:0.137255;stroke:none;"/>
  </g>
</mask>
<clipPath id="clip42">
  <rect x="0" y="0" width="62" height="32"/>
</clipPath>
<g id="surface128" clip-path="url(#clip42)">
<path style=" stroke:none;fill-rule:evenodd;fill:rgb(47.45098%,49.019608%,48.235294%);fill-opacity:1;" d="M 36.472656 24.714844 C 36.875 24.949219 36.84375 25.027344 36.378906 24.953125 C 36.449219 24.886719 36.480469 24.808594 36.472656 24.714844 Z M 36.472656 24.714844 "/>
</g>
<mask id="mask42">
  <g filter="url(#alpha)">
<rect x="0" y="0" width="62" height="32" style="fill:rgb(0%,0%,0%);fill-opacity:0.00784314;stroke:none;"/>
  </g>
</mask>
<clipPath id="clip43">
  <rect x="0" y="0" width="62" height="32"/>
</clipPath>
<g id="surface131" clip-path="url(#clip43)">
<path style=" stroke:none;fill-rule:evenodd;fill:rgb(46.27451%,48.627451%,47.45098%);fill-opacity:1;" d="M 36.566406 25.191406 C 36.503906 25.0625 36.503906 25.0625 36.566406 25.191406 Z M 36.566406 25.191406 "/>
</g>
<mask id="mask43">
  <g filter="url(#alpha)">
<rect x="0" y="0" width="62" height="32" style="fill:rgb(0%,0%,0%);fill-opacity:0.145098;stroke:none;"/>
  </g>
</mask>
<clipPath id="clip44">
  <rect x="0" y="0" width="62" height="32"/>
</clipPath>
<g id="surface134" clip-path="url(#clip44)">
<path style=" stroke:none;fill-rule:evenodd;fill:rgb(45.098039%,47.45098%,46.27451%);fill-opacity:1;" d="M 36.566406 25.191406 C 36.695312 25.253906 36.695312 25.253906 36.566406 25.191406 Z M 36.566406 25.191406 "/>
</g>
<mask id="mask44">
  <g filter="url(#alpha)">
<rect x="0" y="0" width="62" height="32" style="fill:rgb(0%,0%,0%);fill-opacity:0.0117647;stroke:none;"/>
  </g>
</mask>
<clipPath id="clip45">
  <rect x="0" y="0" width="62" height="32"/>
</clipPath>
<g id="surface137" clip-path="url(#clip45)">
<path style=" stroke:none;fill-rule:evenodd;fill:rgb(45.490196%,47.843137%,46.27451%);fill-opacity:1;" d="M 36.566406 25.382812 C 36.695312 25.445312 36.695312 25.445312 36.566406 25.382812 Z M 36.566406 25.382812 "/>
</g>
<mask id="mask45">
  <g filter="url(#alpha)">
<rect x="0" y="0" width="62" height="32" style="fill:rgb(0%,0%,0%);fill-opacity:0.137255;stroke:none;"/>
  </g>
</mask>
<clipPath id="clip46">
  <rect x="0" y="0" width="62" height="32"/>
</clipPath>
<g id="surface140" clip-path="url(#clip46)">
<path style=" stroke:none;fill-rule:evenodd;fill:rgb(46.27451%,47.843137%,47.843137%);fill-opacity:1;" d="M 36.285156 25.476562 C 36.519531 25.476562 36.535156 25.539062 36.332031 25.667969 C 36.289062 25.609375 36.273438 25.546875 36.285156 25.476562 Z M 36.285156 25.476562 "/>
</g>
<mask id="mask46">
  <g filter="url(#alpha)">
<rect x="0" y="0" width="62" height="32" style="fill:rgb(0%,0%,0%);fill-opacity:0.980392;stroke:none;"/>
  </g>
</mask>
<clipPath id="clip47">
  <rect x="0" y="0" width="62" height="32"/>
</clipPath>
<g id="surface143" clip-path="url(#clip47)">
<path style=" stroke:none;fill-rule:evenodd;fill:rgb(92.54902%,92.156863%,92.54902%);fill-opacity:1;" d="M 9.199219 26.429688 C 9.71875 26.300781 9.957031 26.492188 9.910156 27 C 9.640625 27.191406 9.339844 27.238281 9.011719 27.144531 C 8.875 26.851562 8.9375 26.613281 9.199219 26.429688 Z M 9.199219 26.429688 "/>
</g>
<mask id="mask47">
  <g filter="url(#alpha)">
<rect x="0" y="0" width="62" height="32" style="fill:rgb(0%,0%,0%);fill-opacity:0.501961;stroke:none;"/>
  </g>
</mask>
<clipPath id="clip48">
  <rect x="0" y="0" width="62" height="32"/>
</clipPath>
<g id="surface146" clip-path="url(#clip48)">
<path style=" stroke:none;fill-rule:evenodd;fill:rgb(89.019608%,89.019608%,89.411765%);fill-opacity:1;" d="M 61.953125 30.617188 C 61.953125 31.0625 61.953125 31.507812 61.953125 31.953125 C 60.914062 31.953125 59.875 31.953125 58.839844 31.953125 C 58.941406 31.707031 58.910156 31.46875 58.746094 31.238281 C 58.808594 30.953125 58.964844 30.871094 59.214844 31 C 59.34375 31.285156 59.46875 31.574219 59.59375 31.855469 C 59.640625 31.132812 60.050781 30.828125 60.820312 30.953125 C 61.136719 30.519531 61.515625 30.40625 61.953125 30.617188 Z M 61.953125 30.617188 "/>
</g>
</defs>
<g id="surface1">
<use xlink:href="#surface5" mask="url(#mask0)"/>
<use xlink:href="#surface8" mask="url(#mask1)"/>
<use xlink:href="#surface11" mask="url(#mask2)"/>
<use xlink:href="#surface14" mask="url(#mask3)"/>
<use xlink:href="#surface17" mask="url(#mask4)"/>
<use xlink:href="#surface20" mask="url(#mask5)"/>
<use xlink:href="#surface23" mask="url(#mask6)"/>
<use xlink:href="#surface26" mask="url(#mask7)"/>
<use xlink:href="#surface29" mask="url(#mask8)"/>
<use xlink:href="#surface32" mask="url(#mask9)"/>
<use xlink:href="#surface35" mask="url(#mask10)"/>
<use xlink:href="#surface38" mask="url(#mask11)"/>
<use xlink:href="#surface41" mask="url(#mask12)"/>
<path style=" stroke:none;fill-rule:evenodd;fill:rgb(17.647059%,41.176471%,65.098039%);fill-opacity:1;" d="M 30.621094 11 C 30.835938 10.96875 31.023438 11.015625 31.1875 11.144531 C 31.082031 11.167969 30.988281 11.214844 30.90625 11.285156 C 31.078125 11.355469 31.253906 11.417969 31.425781 11.476562 C 31.523438 11.835938 31.382812 12.027344 31 12.046875 C 30.9375 12.015625 30.875 11.984375 30.8125 11.953125 C 30.894531 11.8125 31.019531 11.734375 31.1875 11.714844 C 30.679688 11.742188 30.492188 11.507812 30.621094 11 Z M 30.621094 11 "/>
<use xlink:href="#surface44" mask="url(#mask13)"/>
<path style=" stroke:none;fill-rule:evenodd;fill:rgb(17.254902%,41.176471%,64.705882%);fill-opacity:1;" d="M 29.867188 11.285156 C 30.265625 11.425781 30.457031 11.710938 30.433594 12.144531 C 30.191406 12.046875 29.9375 11.96875 29.679688 11.90625 C 29.785156 11.804688 29.910156 11.742188 30.054688 11.714844 C 29.890625 11.539062 29.734375 11.554688 29.585938 11.761719 C 29.480469 11.679688 29.464844 11.585938 29.539062 11.476562 C 29.660156 11.421875 29.769531 11.355469 29.867188 11.285156 Z M 29.867188 11.285156 "/>
<path style=" stroke:none;fill-rule:evenodd;fill:rgb(16.470588%,40.392157%,64.705882%);fill-opacity:1;" d="M 28.640625 11.855469 C 28.644531 12.1875 28.707031 12.503906 28.828125 12.808594 C 28.734375 12.9375 28.640625 12.9375 28.546875 12.808594 C 28.4375 12.601562 28.3125 12.410156 28.167969 12.238281 C 28.136719 12.285156 28.105469 12.332031 28.074219 12.382812 C 28.203125 12.601562 28.265625 12.839844 28.261719 13.09375 C 28.101562 13.09375 27.976562 13.027344 27.886719 12.90625 C 27.789062 12.769531 27.726562 12.609375 27.695312 12.429688 C 27.679688 12.300781 27.710938 12.191406 27.792969 12.09375 C 28.066406 11.984375 28.351562 11.90625 28.640625 11.855469 Z M 28.640625 11.855469 "/>
<use xlink:href="#surface47" mask="url(#mask14)"/>
<use xlink:href="#surface50" mask="url(#mask15)"/>
<use xlink:href="#surface53" mask="url(#mask16)"/>
<use xlink:href="#surface56" mask="url(#mask17)"/>
<use xlink:href="#surface59" mask="url(#mask18)"/>
<use xlink:href="#surface62" mask="url(#mask19)"/>
<use xlink:href="#surface65" mask="url(#mask20)"/>
<use xlink:href="#surface68" mask="url(#mask21)"/>
<use xlink:href="#surface71" mask="url(#mask22)"/>
<use xlink:href="#surface74" mask="url(#mask23)"/>
<use xlink:href="#surface77" mask="url(#mask24)"/>
<use xlink:href="#surface80" mask="url(#mask25)"/>
<use xlink:href="#surface83" mask="url(#mask26)"/>
<use xlink:href="#surface86" mask="url(#mask27)"/>
<use xlink:href="#surface89" mask="url(#mask28)"/>
<use xlink:href="#surface92" mask="url(#mask29)"/>
<use xlink:href="#surface95" mask="url(#mask30)"/>
<use xlink:href="#surface98" mask="url(#mask31)"/>
<use xlink:href="#surface101" mask="url(#mask32)"/>
<use xlink:href="#surface104" mask="url(#mask33)"/>
<use xlink:href="#surface107" mask="url(#mask34)"/>
<use xlink:href="#surface110" mask="url(#mask35)"/>
<use xlink:href="#surface113" mask="url(#mask36)"/>
<use xlink:href="#surface116" mask="url(#mask37)"/>
<use xlink:href="#surface119" mask="url(#mask38)"/>
<use xlink:href="#surface122" mask="url(#mask39)"/>
<use xlink:href="#surface125" mask="url(#mask40)"/>
<use xlink:href="#surface128" mask="url(#mask41)"/>
<use xlink:href="#surface131" mask="url(#mask42)"/>
<use xlink:href="#surface134" mask="url(#mask43)"/>
<use xlink:href="#surface137" mask="url(#mask44)"/>
<use xlink:href="#surface140" mask="url(#mask45)"/>
<use xlink:href="#surface143" mask="url(#mask46)"/>
<use xlink:href="#surface146" mask="url(#mask47)"/>
</g>
</svg>
